<?xml version="1.0" standalone="no"?>
<!DOCTYPE svg PUBLIC "-//W3C//DTD SVG 20010904//EN"
 "http://www.w3.org/TR/2001/REC-SVG-20010904/DTD/svg10.dtd">
<svg version="1.0" xmlns="http://www.w3.org/2000/svg"
 width="200.000000pt" height="200.000000pt" viewBox="0 0 200.000000 200.000000"
 preserveAspectRatio="xMidYMid meet">

<g transform="translate(0.000000,200.000000) scale(0.100000,-0.100000)"
fill="#000000" stroke="none">
<path d="M178 1154 c-5 -4 -8 -77 -8 -163 0 -106 3 -152 10 -145 7 7 9 68 8
163 -2 84 -6 149 -10 145z"/>
<path d="M883 1110 c-12 -5 -27 -19 -33 -30 -19 -35 -4 -66 43 -92 76 -42 46
-101 -35 -67 -19 8 -33 8 -39 2 -15 -15 25 -44 71 -50 33 -5 45 -2 65 17 45
43 29 98 -35 124 -33 13 -41 21 -38 39 3 18 9 22 41 21 38 -1 48 11 25 34 -14
14 -34 14 -65 2z"/>
<path d="M331 1091 c-34 -9 -37 -29 -7 -41 23 -8 26 -15 26 -58 0 -55 -14 -79
-50 -84 -36 -4 -32 -32 5 -36 23 -2 37 4 55 23 22 23 25 36 24 95 0 48 4 71
13 74 7 3 13 12 13 21 0 16 -34 19 -79 6z"/>
<path d="M646 1091 c-4 -6 -2 -38 4 -73 5 -35 10 -80 10 -100 0 -37 1 -38 35
-38 25 0 44 8 60 25 48 47 21 120 -41 113 -26 -3 -29 0 -32 29 -3 34 -26 61
-36 44z m98 -126 c3 -9 -4 -25 -16 -37 l-21 -21 -9 23 c-5 13 -6 30 -4 37 7
18 43 16 50 -2z"/>
<path d="M1505 1091 c-4 -7 -2 -57 5 -112 l12 -99 32 0 c62 0 103 67 71 116
-14 22 -22 25 -51 21 -32 -5 -34 -4 -34 22 0 34 -24 70 -35 52z m95 -136 c0
-24 -31 -51 -44 -38 -8 8 -8 48 1 56 3 4 15 7 25 7 12 0 18 -7 18 -25z"/>
<path d="M1395 1070 c-4 -7 -3 -16 3 -22 14 -14 45 -2 40 15 -6 16 -34 21 -43
7z"/>
<path d="M1084 1033 c-46 -34 -58 -112 -22 -137 43 -30 119 -10 105 28 -6 15
-9 15 -30 1 -22 -14 -26 -14 -48 3 -22 19 -22 20 -6 45 10 15 28 27 44 29 39
4 37 32 -2 36 -16 1 -35 -1 -41 -5z"/>
<path d="M1740 1021 c-15 -4 -32 -21 -43 -43 -16 -32 -17 -41 -5 -65 27 -57
102 -69 132 -21 15 24 0 34 -28 19 -26 -14 -57 -12 -63 5 -2 6 11 14 28 18 40
8 59 23 59 47 0 16 -36 51 -50 48 -3 -1 -16 -4 -30 -8z m40 -40 c0 -11 -39
-25 -47 -18 -3 3 -2 10 2 16 8 13 45 15 45 2z"/>
<path d="M1255 1011 c-30 -6 -30 -7 -27 -66 4 -63 13 -82 31 -70 7 4 9 20 5
41 -7 41 8 64 42 64 17 0 24 6 24 20 0 21 -17 24 -75 11z"/>
<path d="M486 994 c-40 -39 6 -134 57 -119 30 9 47 33 47 67 0 55 -68 89 -104
52z m64 -33 c12 -23 4 -51 -15 -51 -20 0 -37 27 -30 50 8 25 31 26 45 1z"/>
<path d="M1390 985 c-13 -35 -13 -92 1 -101 18 -11 27 9 30 65 3 61 -14 81
-31 36z"/>
</g>
</svg>
